<svg width="24" height="24" viewBox="0 0 24 24" fill="none" xmlns="http://www.w3.org/2000/svg">
<path d="M18 10H16.74C16.3659 8.55117 15.2143 7.33801 13.7051 6.75909C12.1959 6.18017 10.5 6.29354 9.08546 7.07485C7.67093 7.85615 6.67647 9.23039 6.34597 10.7929C6.01547 12.3554 6.37426 13.9847 7.32 15.28" stroke="currentColor" stroke-width="2" stroke-linecap="round" stroke-linejoin="round"/>
<path d="M18 10C19.6569 10 21 11.3431 21 13C21 14.6569 19.6569 16 18 16H6C4.34315 16 3 14.6569 3 13C3 11.3431 4.34315 10 6 10" stroke="currentColor" stroke-width="2" stroke-linecap="round" stroke-linejoin="round"/>
<path d="M8 19L8 22" stroke="currentColor" stroke-width="2" stroke-linecap="round" stroke-linejoin="round"/>
<path d="M12 19L12 22" stroke="currentColor" stroke-width="2" stroke-linecap="round" stroke-linejoin="round"/>
<path d="M16 19L16 22" stroke="currentColor" stroke-width="2" stroke-linecap="round" stroke-linejoin="round"/>
</svg>

